# xmcd
#
# Track frame offsets:
# 150
# 23091
# 41318
# 59232
# 74752
# 86780
# 106404
# 118749
# 139060
# 155259
# 168159
# 181675
# 196240
# 207428
# 221680
# 238157
# 257376
# 274855
#
# Disc length: 3866 seconds
#
#
# Revision: 0
# Processed by: cddbd v1.5.2PL0 Copyright (c) Steve Scherf et al.
# Submitted via: FreeRIP 2.942 
#
DISCID=090f1812
DTITLE=Alan Jackson - Norwegian Favorites
DYEAR=2009
DGENRE=Country
TTITLE0=Good Time
TTITLE1=Drive(For Daddy Gene)
TTITLE2=Chattahoochee
TTITLE3=USA Today
TTITLE4=Little Bitty
TTITLE5=Gone Country
TTITLE6=It's Alright To Be A Redneck
TTITLE7=Little Man
TTITLE8=Like Red On Rose
TTITLE9=Don't rock the Jukebox
TTITLE10=The Talkin' Song Repair Blues
TTITLE11=Summertime Blues
TTITLE12=Tall, Tall Trees
TTITLE13=Too Much Of A Good Thing
TTITLE14=Mercury Blues
TTITLE15=A Womans Love
TTITLE16=It's Five O'Clock Somewhere
TTITLE17=Monday Morning Church
EXTD=
EXTT0=
EXTT1=
EXTT2=
EXTT3=
EXTT4=
EXTT5=
EXTT6=
EXTT7=
EXTT8=
EXTT9=
EXTT10=
EXTT11=
EXTT12=
EXTT13=
EXTT14=
EXTT15=
EXTT16=
EXTT17=
PLAYORDER=
